<svg xmlns="http://www.w3.org/2000/svg" viewBox="0 -960 960 960" width="32" height="32">
  <rect x="0" y="-960" width="960" height="960" fill="white" />
  <path fill="black" d="M120-560v-280h280v280H120Zm80-80h120v-120H200v120Zm-80 520v-280h280v280H120Zm80-80h120v-120H200v120Zm360-360v-280h280v280H560Zm80-80h120v-120H640v120Zm-80 440v-80h80v80h-80Zm80-80v-80h80v80h-80Zm-80-80v-80h80v80h-80Zm80-80v-80h80v80h-80Zm80 80v-80h80v80h-80Zm-80 80v-80h80v80h-80Zm80 80v-80h80v80h-80Zm80-80v-80h80v80h-80Zm-80 80v-80h80v80h-80Z"/>
</svg>